<mxfile host="app.diagrams.net" modified="2023-12-27T04:54:52.824Z" agent="Mozilla/5.0 (Macintosh; Intel Mac OS X 10_15_7) AppleWebKit/537.36 (KHTML, like Gecko) Chrome/120.0.0.0 Safari/537.36" version="22.1.12" etag="ZESuo9YOD8_yg0IN8Ku6" type="github">
  <diagram name="페이지-1" id="OFyy-STT6SQy-DMiOTPt">
    <mxGraphModel>
      <root>
        <mxCell id="0" />
        <mxCell id="1" parent="0" />
      </root>
    </mxGraphModel>
  </diagram>
</mxfile>
